<svg width="312" height="68" xmlns="http://www.w3.org/2000/svg" xmlns:xlink="http://www.w3.org/1999/xlink" xml:space="preserve" overflow="hidden"><defs><clipPath id="clip0"><rect x="880" y="597" width="312" height="68"/></clipPath></defs><g clip-path="url(#clip0)" transform="translate(-880 -597)"><path d="M98.1424 21.6428 113.41 21.6428C119.571 21.6428 123.749 23.6249 123.749 29.6784 123.749 35.732 122.196 35.0356 119.357 36.4284 123.374 37.5534 125.303 40.607 125.303 44.6784 125.303 51.2676 119.732 54.1069 113.839 54.1069L98.1424 54.1069 98.1424 21.6428ZM105.267 34.7677 112.5 34.7677C115.017 34.7677 116.839 33.6427 116.839 30.9106 116.839 28.1785 114.482 27.1606 111.91 27.1606L105.214 27.1606 105.214 34.7677ZM105.267 48.5355 112.875 48.5355C115.66 48.5355 118.125 47.6248 118.125 44.2498 118.125 40.8748 116.089 39.5891 112.982 39.5891L105.214 39.5891 105.214 48.4819Z" fill="#1D1D1B" transform="matrix(1.01164 0 0 1 880 597.009)"/><path d="M127.66 30.5892 133.767 30.5892 133.767 34.9284 133.874 34.9284C135.107 31.982 138.16 29.9463 141.374 29.9463 144.589 29.9463 142.339 30.0534 142.767 30.1606L142.767 36.1606C142.178 35.9998 141.214 35.9463 140.464 35.9463 135.696 35.9463 134.089 39.3213 134.089 43.4998L134.089 54.1069 127.66 54.1069 127.66 30.5892Z" fill="#1D1D1B" transform="matrix(1.01164 0 0 1 880 597.009)"/><path d="M151.928 26.9463 145.499 26.9463 145.499 21.6428 151.928 21.6428 151.928 26.9463ZM145.499 30.5892 151.928 30.5892 151.928 54.0533 145.499 54.0533 145.499 30.5892Z" fill="#1D1D1B" transform="matrix(1.01164 0 0 1 880 597.009)"/><path d="M161.41 43.8748C161.571 47.9998 163.553 49.8212 167.196 49.8212 170.839 49.8212 171.856 48.2141 172.285 46.7677L177.964 46.7677C176.142 52.3391 172.285 54.6962 166.981 54.6962 161.678 54.6962 154.981 49.6069 154.981 42.3213 154.981 35.0356 159.856 29.8927 166.981 29.8927 174.106 29.8927 178.874 36.6427 178.392 43.8212L161.464 43.8212ZM171.91 39.8034C171.321 36.5356 169.928 34.8213 166.767 34.8213 163.606 34.8213 161.517 37.982 161.41 39.8034L171.91 39.8034Z" fill="#1D1D1B" transform="matrix(1.01164 0 0 1 880 597.009)"/><path d="M183.589 34.8749 179.731 34.8749 179.731 30.5356 183.589 30.5356 183.589 28.7142C183.589 24.5356 186.16 21.5892 191.463 21.5892 196.767 21.5892 193.767 21.7499 194.892 21.7499L194.892 26.5713C194.142 26.4642 193.285 26.4106 192.535 26.4106 190.767 26.4106 190.071 27.1606 190.071 29.0892L190.071 30.482 194.517 30.482 194.517 34.8213 190.071 34.8213 190.071 53.9998 183.642 53.9998 183.642 34.8213Z" fill="#1D1D1B" transform="matrix(1.01164 0 0 1 880 597.009)"/><path d="M200.892 21.6428 214.606 21.6428C220.071 21.6428 224.999 23.5713 224.999 29.5713 224.999 35.5713 222.749 36.107 219.374 36.857L219.374 36.9641C223.553 37.4998 226.231 40.6605 226.231 44.8927 226.231 49.1248 225.16 54.1069 214.606 54.1069L200.892 54.1069 200.892 21.6428ZM203.999 35.8391 214.606 35.8391C219.535 35.8391 221.945 33.3749 221.945 30.3213 221.945 27.2677 219.481 24.2142 214.606 24.2142L203.999 24.2142 203.999 35.7856ZM203.999 51.4284 214.606 51.4284C219.213 51.4284 223.124 50.0355 223.124 44.732 223.124 39.4284 220.017 38.4641 214.606 38.4641L203.999 38.4641 203.999 51.4284Z" fill="#1D1D1B" transform="matrix(1.01164 0 0 1 880 597.009)"/><path d="M246.91 54.0533 244.285 54.0533 244.285 49.8212 244.178 49.8212C242.678 52.9819 239.57 54.7498 236.088 54.7498 230.142 54.7498 227.838 51.3212 227.838 45.857L227.838 30.6427 230.678 30.6427 230.678 45.9105C230.838 50.1426 232.392 52.3391 236.945 52.3391 241.499 52.3391 243.963 47.6784 243.963 42.9105L243.963 30.5892 246.803 30.5892 246.803 54.0533Z" fill="#1D1D1B" transform="matrix(1.01164 0 0 1 880 597.009)"/><path d="M256.82 30.6427 261.588 30.6427 261.588 33.0534 256.82 33.0534 256.82 48.8569C256.82 50.7319 257.088 51.8034 259.124 51.9641 259.927 51.9641 260.785 51.9641 261.588 51.8034L261.588 54.2676C260.731 54.2676 259.927 54.3748 259.07 54.3748 255.267 54.3748 253.928 53.0891 253.981 49.1248L253.981 33.107 249.91 33.107 249.91 30.6963 253.981 30.6963 253.981 23.6785 256.82 23.6785 256.82 30.6963Z" fill="#1D1D1B" transform="matrix(1.01164 0 0 1 880 597.009)"/><path d="M265.82 21.6428 268.66 21.6428 268.66 54.1069 265.82 54.1069 265.82 21.6428Z" fill="#1D1D1B" transform="matrix(1.01164 0 0 1 880 597.009)"/><path d="M275.838 43.1248C275.838 47.3034 278.088 52.3391 283.552 52.3391 289.017 52.3391 289.981 49.9284 290.892 46.3391L293.731 46.3391C292.499 51.6426 289.445 54.7498 283.499 54.7498 277.552 54.7498 272.892 49.0177 272.892 42.3213 272.892 35.6249 276.052 29.8927 283.499 29.8927 290.945 29.8927 294.052 36.482 293.838 43.0713L275.785 43.0713ZM290.999 40.7141C290.838 36.3749 288.16 32.357 283.552 32.357 278.945 32.357 276.32 36.4284 275.838 40.7141L290.999 40.7141Z" fill="#1D1D1B" transform="matrix(1.01164 0 0 1 880 597.009)"/><path d="M296.838 30.6427 299.463 30.6427 299.463 36.1606 299.57 36.1606C301.017 32.357 304.231 30.1606 308.409 30.3213L308.409 33.1606C303.213 32.9463 299.677 36.6427 299.677 41.5713L299.677 54.0533 296.838 54.0533 296.838 30.6427Z" fill="#1D1D1B" transform="matrix(1.01164 0 0 1 880 597.009)"/><path d="M80.6247 15.1071 80.6247 60.9105 57.7498 37.982 80.6247 15.1071Z" fill="#009FE3" transform="matrix(1.01164 0 0 1 880 597.009)"/><path d="M42.2141 37.9284C44.1427 37.9284 45.6962 36.3749 45.6962 34.4463 45.6962 32.5177 44.1427 30.9106 42.2141 30.9106 40.2855 30.9106 38.732 32.4641 38.732 34.4463 38.732 36.4284 40.2855 37.9284 42.2141 37.9284ZM38.732 22.7142C38.732 24.6428 40.2855 26.1963 42.2141 26.1963 44.1427 26.1963 45.6962 24.6428 45.6962 22.7142 45.6962 20.7856 44.1427 19.1785 42.2141 19.1785 40.2855 19.1785 38.732 20.7321 38.732 22.7142ZM64.714 21.2142C65.089 21.2142 65.464 21.1071 65.7854 20.8928 66.2676 20.5178 66.589 19.9821 66.589 19.3392L66.589 12.4821 78.0532 12.4821 44.9998 45.5355C43.4998 47.0355 41.0355 47.0355 39.5356 45.5355L6.37497 12.4821 18.2678 12.4821 18.2678 19.3392C18.2678 19.9821 18.5892 20.5178 19.0713 20.8928 19.3928 21.1071 19.7678 21.2142 20.1428 21.2142 20.5178 21.2142 20.6249 21.2142 20.8392 21.1071L42.3748 12.6964 63.9104 21.1071C64.1247 21.2142 64.339 21.2142 64.6069 21.2142Z" fill="#FFFFFF" transform="matrix(1.01164 0 0 1 880 597.009)"/><path d="M42.2141 19.1785C44.1427 19.1785 45.6962 20.7321 45.6962 22.7142 45.6962 24.6963 44.1427 26.1963 42.2141 26.1963 40.2855 26.1963 38.732 24.6428 38.732 22.7142 38.732 20.7856 40.2855 19.1785 42.2141 19.1785Z" fill="#1D1D1B" transform="matrix(1.01164 0 0 1 880 597.009)"/><path d="M42.2141 30.9106C44.1427 30.9106 45.6962 32.4641 45.6962 34.4463 45.6962 36.4284 44.1427 37.9284 42.2141 37.9284 40.2855 37.9284 38.732 36.3749 38.732 34.4463 38.732 32.5177 40.2855 30.9106 42.2141 30.9106Z" fill="#1D1D1B" transform="matrix(1.01164 0 0 1 880 597.009)"/><path d="M55.1248 40.6605 78.6425 64.2319C78.5354 64.2319 78.3747 64.2319 78.214 64.2319L6.16069 64.2319C5.99998 64.2319 5.89283 64.2319 5.73212 64.2319 5.73212 64.2319 5.73212 64.2319 5.78569 64.2319L29.3034 40.7141 36.857 48.2141C38.3034 49.6605 40.232 50.4641 42.2677 50.4641 44.3034 50.4641 46.232 49.6605 47.6784 48.2141L55.2319 40.6605Z" fill="#009FE3" transform="matrix(1.01164 0 0 1 880 597.009)"/><path d="M26.6249 37.982 3.74998 60.9105 3.74998 15.1071 26.6249 37.982Z" fill="#009FE3" transform="matrix(1.01164 0 0 1 880 597.009)"/><path d="M78.2675 8.73211 66.5354 8.73211 66.5354 1.87499C66.5354 1.23214 66.214 0.696426 65.7319 0.321427 65.1962-0.0535712 64.5533-0.107142 64.0176 0.107142L42.482 8.51782 20.8928 0.107142C20.3035-0.107142 19.6606-0.0535712 19.1785 0.321427 18.6428 0.696426 18.3749 1.23214 18.3749 1.87499L18.3749 8.73211 6.16069 8.73211C2.7857 8.73211 0 11.4642 0 14.8928L0 61.8212C0 65.1962 2.7857 67.9819 6.16069 67.9819L78.2675 67.9819C81.6425 67.9819 84.4282 65.2497 84.4282 61.8212L84.4282 14.8928C84.4282 11.5178 81.6961 8.73211 78.2675 8.73211ZM18.3214 12.4821 18.3214 19.3392C18.3214 19.9821 18.6428 20.5178 19.1249 20.8928 19.4463 21.1071 19.8213 21.2142 20.1963 21.2142 20.5713 21.2142 20.6785 21.2142 20.8928 21.1071L42.4284 12.6964 63.964 21.1071C64.1783 21.2142 64.3926 21.2142 64.6604 21.2142 65.0354 21.2142 65.4104 21.1071 65.7319 20.8928 66.2676 20.5178 66.5354 19.9821 66.5354 19.3392L66.5354 12.4821 77.9997 12.4821 44.9462 45.5355C43.4462 47.0355 40.982 47.0355 39.482 45.5355L6.42854 12.4821 18.3214 12.4821ZM3.74998 15.1071 26.6249 37.982 3.74998 60.9105 3.74998 15.1071ZM78.2675 64.2319 6.16069 64.2319C5.99998 64.2319 5.89283 64.2319 5.73212 64.2319 5.73212 64.2319 5.73212 64.2319 5.78569 64.2319L29.3034 40.7677 36.8034 48.2677C38.2498 49.7141 40.1784 50.5177 42.2141 50.5177 44.2498 50.5177 46.1784 49.7141 47.6248 48.2677L55.1248 40.7141 78.6961 64.2854C78.589 64.2854 78.4282 64.2854 78.2675 64.2854ZM80.6782 60.8569 57.8033 37.982 80.6782 15.1071 80.6782 60.9105Z" fill="#1D1D1B" transform="matrix(1.01164 0 0 1 880 597.009)"/></g></svg>